<svg width="24" height="24" viewBox="0 0 24 24" fill="none" xmlns="http://www.w3.org/2000/svg">
<path d="M19.0657 19.3563H21.7012L22.6387 14.6437H19.0657V19.3563ZM19.0657 24H19.0925C20.0942 24 20.8816 23.2188 21.1441 22.1562L21.4655 20.5375H19.0657V24ZM12.5035 20.5312H18.0586V24H12.5035V20.5312ZM2.30413 19.3563H4.92898V14.6437H1.36669L2.30413 19.3563ZM5.94143 8H11.4965V13.4688H5.94143V8ZM12.5035 8H18.0586V13.4688H12.5035V8ZM2.8666 22.1437C3.11837 23.2062 3.90583 24 4.90756 24H4.93434V20.5312H2.53983L2.8666 22.1437ZM5.94143 20.5312H11.4965V24H5.94143V20.5312ZM12.5035 14.6437H18.0586V19.3563H12.5035V14.6437ZM5.94143 14.6437H11.4965V19.3563H5.94143V14.6437Z" fill="white"/>
<path d="M23.1422 8H20.5763V2C20.5763 0.9 19.8049 0 18.8621 0H5.13789C4.19509 0 3.42371 0.9 3.42371 2V8H0.857781C0.306027 8 -0.101093 8.6 0.0221144 9.225L1.07741 13.4688H4.92898V2.625C4.92898 2.14375 5.26646 1.75 5.67893 1.75H18.3211C18.7335 1.75 19.071 2.14375 19.071 2.625V13.4688H22.9279L23.9779 9.225C24.1011 8.6 23.694 8 23.1422 8Z" fill="white"/>
</svg>
