<svg width="28" height="28" viewBox="0 0 28 28" fill="none" xmlns="http://www.w3.org/2000/svg">
<circle cx="14" cy="14" r="14" fill="#EFEFF4"/>
<path fill-rule="evenodd" clip-rule="evenodd" d="M8.11206 16C9.21663 16 10.1121 15.1046 10.1121 14C10.1121 12.8954 9.21663 12 8.11206 12C7.00749 12 6.11206 12.8954 6.11206 14C6.11206 15.1046 7.00749 16 8.11206 16ZM14.1121 16C15.2166 16 16.1121 15.1046 16.1121 14C16.1121 12.8954 15.2166 12 14.1121 12C13.0075 12 12.1121 12.8954 12.1121 14C12.1121 15.1046 13.0075 16 14.1121 16ZM22.1121 14C22.1121 15.1046 21.2166 16 20.1121 16C19.0075 16 18.1121 15.1046 18.1121 14C18.1121 12.8954 19.0075 12 20.1121 12C21.2166 12 22.1121 12.8954 22.1121 14Z" fill="#212121"/>
</svg>
