<svg width="27" height="24" viewBox="0 0 27 24" fill="none" xmlns="http://www.w3.org/2000/svg">
<g id="Document">
<path id="Vector" d="M16.2026 7.26583H20.9284C21.0738 7.26583 21.1881 7.1627 21.1881 7.03145C21.1881 6.61426 20.9855 6.22051 20.6324 5.95801L16.67 2.97676C16.3688 2.75176 15.9949 2.62988 15.6002 2.62988C15.3873 2.62988 15.2159 2.78457 15.2159 2.97676V6.3752C15.2159 6.86739 15.6574 7.26583 16.2026 7.26583Z" fill="white"/>
<path id="Vector_2" d="M13.8657 6.75V3H7.06269C6.14869 3 5.40088 3.675 5.40088 4.5V20.25C5.40088 21.075 6.14869 21.75 7.06269 21.75H19.5262C20.4402 21.75 21.1881 21.075 21.1881 20.25V8.85938H16.2026C14.9147 8.85938 13.8657 7.9125 13.8657 6.75Z" fill="white"/>
</g>
</svg>
